<svg width="48" height="48" viewBox="0 0 48 48" fill="none" xmlns="http://www.w3.org/2000/svg">
<path d="M7.00001 40.5999C6.04251 40.5999 5.19481 40.231 4.45691 39.4931C3.71897 38.7551 3.35001 37.9074 3.35001 36.9499V11.0499C3.35001 10.0924 3.71897 9.2447 4.45691 8.5068C5.19481 7.76887 6.04251 7.3999 7.00001 7.3999H41C41.9575 7.3999 42.8052 7.76887 43.5431 8.5068C44.281 9.2447 44.65 10.0924 44.65 11.0499V26.2499H41V11.0499H7.00001V36.9499H30.3V40.5999H7.00001ZM40.25 43.1999L38 38.4499L33.25 36.1999L38 33.8999L40.25 29.1499L42.5429 33.9071L47.3 36.1999L42.55 38.4499L40.25 43.1999ZM24 31.5499L26.35 26.3343L31.6 23.9999L26.35 21.6499L24 16.3999L21.6656 21.6499L16.45 23.9999L21.6656 26.3343L24 31.5499Z" fill="black"/>
</svg>
