<svg width="48" height="48" viewBox="0 0 48 48" fill="none" xmlns="http://www.w3.org/2000/svg">
<path d="M11.2559 40.7C9.53528 40.7 8.07081 40.0972 6.86248 38.8917C5.65414 37.6861 5.04998 36.2222 5.04998 34.5H1.34998V10.9C1.34998 9.9425 1.71894 9.0948 2.45688 8.3569C3.19478 7.61897 4.04248 7.25 4.99998 7.25H34.35V15.95H40.05L46.65 24.65V34.5H42.8C42.8 36.2222 42.1978 37.6861 40.9934 38.8917C39.7889 40.0972 38.3264 40.7 36.6059 40.7C34.8992 40.7 33.4465 40.0972 32.2479 38.8917C31.0493 37.6861 30.45 36.2222 30.45 34.5H17.45C17.45 36.2333 16.8478 37.7 15.6434 38.9C14.4389 40.1 12.9764 40.7 11.2559 40.7ZM11.2491 37.05C11.9497 37.05 12.55 36.8003 13.05 36.3009C13.55 35.8015 13.8 35.2015 13.8 34.5009C13.8 33.8003 13.5503 33.2 13.0509 32.7C12.5514 32.2 11.9514 31.95 11.2509 31.95C10.5503 31.95 9.94998 32.1997 9.44998 32.6991C8.94998 33.1985 8.69998 33.7985 8.69998 34.4991C8.69998 35.1997 8.94968 35.8 9.44908 36.3C9.94851 36.8 10.5485 37.05 11.2491 37.05ZM4.99998 30.85H6.19998C6.86664 30.0167 7.61783 29.375 8.45353 28.925C9.28926 28.475 10.2059 28.25 11.2035 28.25C12.2012 28.25 13.125 28.4917 13.975 28.975C14.825 29.4583 15.5833 30.0833 16.25 30.85H30.7V10.9H4.99998V30.85ZM36.5991 37.05C37.2997 37.05 37.9 36.8003 38.4 36.3009C38.9 35.8015 39.15 35.2015 39.15 34.5009C39.15 33.8003 38.9003 33.2 38.4009 32.7C37.9014 32.2 37.3014 31.95 36.6009 31.95C35.9003 31.95 35.3 32.1997 34.8 32.6991C34.3 33.1985 34.05 33.7985 34.05 34.4991C34.05 35.1997 34.2997 35.8 34.7991 36.3C35.2985 36.8 35.8985 37.05 36.5991 37.05ZM34.35 26.5H43.45L38.25 19.6H34.35V26.5Z" fill="black"/>
</svg>
