<svg width="48" height="48" viewBox="0 0 48 48" fill="none" xmlns="http://www.w3.org/2000/svg">
<path d="M26.25 35.35L33.6 28.1C34 27.7 34.2917 27.2554 34.475 26.7662C34.6583 26.277 34.75 25.7602 34.75 25.2158C34.75 24.0603 34.3363 23.0771 33.5089 22.2663C32.6815 21.4554 31.6952 21.05 30.55 21.05C29.8988 21.05 29.2278 21.259 28.537 21.6771C27.8462 22.0951 27.0839 22.7694 26.25 23.7C25.4031 22.7722 24.6331 22.0986 23.9399 21.6791C23.2466 21.2597 22.5667 21.05 21.9 21.05C20.7548 21.05 19.7685 21.4576 18.9411 22.2731C18.1137 23.0884 17.7 24.0758 17.7 25.2351C17.7 25.7814 17.7917 26.2955 17.975 26.7773C18.1583 27.2591 18.45 27.7 18.85 28.1L26.25 35.35ZM28.4 43.75C27.6513 44.4833 26.7724 44.85 25.7635 44.85C24.7545 44.85 23.8833 44.4833 23.15 43.75L4.20001 24.85C3.80001 24.45 3.53335 24.025 3.40001 23.575C3.26668 23.125 3.20001 22.6666 3.20001 22.2V6.84995C3.20001 5.81662 3.55001 4.94995 4.25001 4.24995C4.95001 3.54995 5.81668 3.19995 6.85001 3.19995H22.2C22.7021 3.19995 23.185 3.27357 23.6486 3.4208C24.1121 3.568 24.5459 3.84438 24.95 4.24995L43.8 23C44.5667 23.7666 44.9417 24.6666 44.925 25.7C44.9083 26.7333 44.5167 27.6333 43.75 28.4L28.4 43.75ZM25.95 41.25L41.3 25.9L22.2067 6.84995H6.85001V22.2159L25.95 41.25ZM12.15 15C12.9639 15 13.659 14.7093 14.2354 14.128C14.8118 13.5467 15.1 12.8599 15.1 12.0676C15.1 11.2753 14.8076 10.5909 14.2229 10.0146C13.6382 9.43815 12.9472 9.14995 12.15 9.14995C11.3361 9.14995 10.6493 9.43745 10.0896 10.0125C9.52988 10.5875 9.25001 11.2666 9.25001 12.05C9.25001 12.8472 9.52988 13.5382 10.0896 14.1229C10.6493 14.7076 11.3361 15 12.15 15Z" fill="black"/>
</svg>
