<svg width="48" height="48" viewBox="0 0 48 48" fill="none" xmlns="http://www.w3.org/2000/svg">
<path d="M19.35 19.3001L24 17.0001L28.7 19.3001V9.0001H19.35V19.3001ZM13.5 34.5001V29.8501H24.15V34.5001H13.5ZM9 42.6501C8.0425 42.6501 7.19478 42.2812 6.45685 41.5433C5.71895 40.8053 5.35 39.9576 5.35 39.0001V9.0001C5.35 8.0426 5.71895 7.1949 6.45685 6.457C7.19478 5.71906 8.0425 5.3501 9 5.3501H39C39.9575 5.3501 40.8052 5.71906 41.5431 6.457C42.281 7.1949 42.65 8.0426 42.65 9.0001V39.0001C42.65 39.9576 42.281 40.8053 41.5431 41.5433C40.8052 42.2812 39.9575 42.6501 39 42.6501H9ZM9 39.0001H39V9.0001H32.35V25.2001L24 21.0501L15.7 25.2001V9.0001H9V39.0001Z" fill="black"/>
</svg>
