<svg width="48" height="48" viewBox="0 0 48 48" fill="none" xmlns="http://www.w3.org/2000/svg">
<path d="M31.6342 22.2999C32.2781 22.2999 32.825 22.0752 33.275 21.6258C33.725 21.1764 33.95 20.6347 33.95 20.0008C33.95 19.3669 33.725 18.8166 33.275 18.3499C32.825 17.8832 32.2781 17.6499 31.6342 17.6499C30.9903 17.6499 30.4403 17.8795 29.9842 18.3387C29.5281 18.7978 29.3 19.3516 29.3 19.9999C29.3 20.6341 29.5281 21.176 29.9842 21.6256C30.4403 22.0751 30.9903 22.2999 31.6342 22.2999ZM15.45 17.7999H26.1V14.2999H15.45V17.7999ZM8.7 42.2999C7.56667 38.4666 6.44167 34.6332 5.325 30.7999C4.20833 26.9666 3.65 23.0375 3.65 19.0127C3.65 15.823 4.73803 13.1317 6.9141 10.939C9.09017 8.74627 11.7688 7.6499 14.95 7.6499H24.8C25.7765 6.41657 26.9767 5.44157 28.4007 4.7249C29.8247 4.00824 31.3411 3.6499 32.95 3.6499C33.8333 3.6499 34.6125 3.95824 35.2875 4.5749C35.9625 5.19157 36.3 5.92625 36.3 6.77895C36.3 7.02625 36.275 7.26657 36.225 7.4999C36.175 7.73324 36.1167 7.9499 36.05 8.1499C35.9167 8.51657 35.7917 8.88324 35.675 9.2499C35.5583 9.61657 35.4667 9.98825 35.4 10.365L39.75 14.6499H44.35V29.1499L38.6 31.0499L35.2 42.2999H23.7V38.2999H20.25V42.2999H8.7ZM11.45 38.6499H16.65V34.6499H27.25V38.6499H32.45L35.6 28.2499L40.7 26.4999V18.2999H38.25L31.85 11.8999C31.85 11.0999 31.9333 10.3166 32.1 9.5499C32.2667 8.78324 32.45 8.01657 32.65 7.2499C31.45 7.6499 30.3333 8.15824 29.3 8.7749C28.2667 9.39157 27.45 10.2332 26.85 11.2999H14.95C12.82 11.2999 11.0125 12.0516 9.5275 13.5549C8.0425 15.0582 7.3 16.8732 7.3 18.9999C7.3 22.3926 7.76667 25.7075 8.7 28.9445C9.63333 32.1814 10.55 35.4166 11.45 38.6499Z" fill="black"/>
</svg>
