<svg width="48" height="48" viewBox="0 0 48 48" fill="none" xmlns="http://www.w3.org/2000/svg">
<path d="M21.7 42.8001V39.1501H39.15V23.8001C39.15 21.9001 38.7167 20.0584 37.85 18.2751C36.9833 16.4918 35.8417 14.9001 34.425 13.5001C33.0083 12.1001 31.3917 10.9751 29.575 10.1251C27.7583 9.2751 25.8917 8.8501 23.975 8.8501C22.0917 8.8501 20.2417 9.2751 18.425 10.1251C16.6083 10.9751 14.9917 12.1001 13.575 13.5001C12.1583 14.9001 11.0167 16.4918 10.15 18.2751C9.28335 20.0584 8.85001 21.9001 8.85001 23.8001V36.3001H7.55001C6.36585 36.3001 5.3448 35.8834 4.48686 35.0501C3.62896 34.2168 3.20001 33.2001 3.20001 32.0001V28.0001C3.20001 27.1932 3.38335 26.4831 3.75001 25.8699C4.11668 25.2567 4.60001 24.7501 5.20001 24.3501L5.35001 21.8501C5.65001 19.3834 6.38335 17.1251 7.55001 15.0751C8.71668 13.0251 10.15 11.2584 11.85 9.7751C13.55 8.29176 15.45 7.14176 17.55 6.3251C19.65 5.50843 21.8001 5.1001 24.0004 5.1001C26.2335 5.1001 28.4 5.51676 30.5 6.3501C32.6 7.18343 34.5 8.34176 36.2 9.8251C37.9 11.3084 39.325 13.0751 40.475 15.1251C41.625 17.1751 42.35 19.4001 42.65 21.8001L42.8 24.2501C43.4 24.5983 43.8834 25.0794 44.25 25.6935C44.6167 26.3076 44.8 26.9765 44.8 27.7001V32.3001C44.8 33.0668 44.6167 33.7487 44.25 34.346C43.8834 34.9433 43.4 35.4113 42.8 35.7501V39.1501C42.8 40.1751 42.4479 41.0397 41.7438 41.7438C41.0396 42.448 40.175 42.8001 39.15 42.8001H21.7ZM17.9807 28.3001C17.4936 28.3001 17.075 28.1251 16.725 27.7751C16.375 27.4251 16.2 26.9982 16.2 26.4944C16.2 25.9906 16.375 25.5573 16.725 25.1944C17.075 24.8315 17.5019 24.6501 18.0057 24.6501C18.5095 24.6501 18.9428 24.8336 19.3057 25.2006C19.6686 25.5677 19.85 26.0073 19.85 26.5194C19.85 27.0065 19.6665 27.4251 19.2995 27.7751C18.9324 28.1251 18.4928 28.3001 17.9807 28.3001ZM29.9807 28.3001C29.4936 28.3001 29.075 28.1251 28.725 27.7751C28.375 27.4251 28.2 26.9982 28.2 26.4944C28.2 25.9906 28.375 25.5573 28.725 25.1944C29.075 24.8315 29.5019 24.6501 30.0057 24.6501C30.5095 24.6501 30.9428 24.8336 31.3057 25.2006C31.6686 25.5677 31.85 26.0073 31.85 26.5194C31.85 27.0065 31.6665 27.4251 31.2995 27.7751C30.9324 28.1251 30.4928 28.3001 29.9807 28.3001ZM11.75 25.3501C11.6167 23.4168 11.85 21.6168 12.45 19.9501C13.05 18.2834 13.9167 16.8334 15.05 15.6001C16.1833 14.3668 17.5333 13.4001 19.1 12.7001C20.6667 12.0001 22.3333 11.6501 24.1 11.6501C27.2 11.6501 29.8167 12.6751 31.95 14.7251C34.0833 16.7751 35.4167 19.3168 35.95 22.3501C32.75 22.3501 29.95 21.5751 27.55 20.0251C25.15 18.4751 23.2667 16.4501 21.9 13.9501C21.2333 16.5501 20.0083 18.8501 18.225 20.8501C16.4417 22.8501 14.2833 24.3501 11.75 25.3501Z" fill="black"/>
</svg>
