<svg width="25" height="24" viewBox="0 0 25 24" fill="none" xmlns="http://www.w3.org/2000/svg">
<path d="M7.30211 22.219C6.75386 22.219 6.28652 22.0316 5.90008 21.6568C5.51362 21.282 5.32039 20.8315 5.32039 20.3051C5.32039 19.7788 5.5156 19.3302 5.90601 18.9592C6.29643 18.5882 6.76576 18.4027 7.31401 18.4027C7.86226 18.4027 8.3296 18.5901 8.71604 18.9649C9.1025 19.3397 9.29573 19.7903 9.29573 20.3166C9.29573 20.8429 9.10052 21.2915 8.7101 21.6625C8.31969 22.0335 7.85036 22.219 7.30211 22.219ZM17.9405 22.219C17.3905 22.219 16.9233 22.0316 16.5389 21.6568C16.1546 21.282 15.9624 20.8315 15.9624 20.3051C15.9624 19.7788 16.157 19.3302 16.5463 18.9592C16.9356 18.5882 17.4036 18.4027 17.9503 18.4027C18.5023 18.4027 18.9705 18.5901 19.3549 18.9649C19.7393 19.3397 19.9315 19.7903 19.9315 20.3166C19.9315 20.8429 19.7371 21.2915 19.3485 21.6625C18.9598 22.0335 18.4905 22.219 17.9405 22.219ZM6.19846 5.52174L8.92378 10.9293H16.4583L19.5358 5.52174H6.19846ZM5.23604 3.66087H20.8953C21.335 3.66087 21.672 3.85778 21.9063 4.25162C22.1405 4.64547 22.1431 5.0413 21.914 5.43912L18.319 11.6382C18.1226 11.9745 17.8563 12.2515 17.5202 12.4694C17.184 12.6873 16.812 12.7962 16.4042 12.7962H8.44539L7.14331 15.1201H20.0198V16.981H7.04763C6.23657 16.981 5.65865 16.7155 5.31388 16.1845C4.96912 15.6535 4.9745 15.0674 5.33003 14.4261L6.94461 11.55L3.02365 3.54674H0.90802V1.68587H4.2725L5.23604 3.66087Z" fill="white"/>
</svg>
