<svg id="Слой_1" data-name="Слой 1" xmlns="http://www.w3.org/2000/svg" width="190" height="190" viewBox="0 0 190 190"><path d="M146.74,130.73H43.26a5.92,5.92,0,0,1-5.91-5.92V73.72a5.92,5.92,0,0,1,5.91-5.92H146.74a5.92,5.92,0,0,1,5.91,5.92v51.09A5.92,5.92,0,0,1,146.74,130.73ZM43.26,70.84a2.89,2.89,0,0,0-2.88,2.88v51.09a2.89,2.89,0,0,0,2.88,2.88H146.74a2.88,2.88,0,0,0,2.87-2.88V73.72a2.88,2.88,0,0,0-2.87-2.88Z"/><path d="M95,122.35a15.52,15.52,0,1,1,15.52-15.52A15.53,15.53,0,0,1,95,122.35Zm0-28a12.48,12.48,0,1,0,12.48,12.47A12.49,12.49,0,0,0,95,94.36Z"/><path d="M120.91,122.35a7,7,0,1,1,7-7A7,7,0,0,1,120.91,122.35Zm0-10.91a3.94,3.94,0,1,0,3.94,3.94A3.94,3.94,0,0,0,120.91,111.44Z"/><circle cx="138.13" cy="118.11" r="2.74"/><circle cx="138.13" cy="106.71" r="2.74"/><circle cx="51.61" cy="91.29" r="2.74"/><circle cx="51.61" cy="79.89" r="2.74"/><circle cx="60.35" cy="91.29" r="2.74"/><circle cx="60.35" cy="79.89" r="2.74"/><circle cx="69.09" cy="91.29" r="2.74"/><circle cx="69.09" cy="79.89" r="2.74"/><circle cx="77.83" cy="79.89" r="2.74"/><circle cx="86.57" cy="79.89" r="2.74"/><path d="M69.09,122.35a7,7,0,1,1,7-7A7,7,0,0,1,69.09,122.35Zm0-10.91A3.94,3.94,0,1,0,73,115.38,3.95,3.95,0,0,0,69.09,111.44Z"/><path d="M51.61,122.35a7,7,0,1,1,7-7A7,7,0,0,1,51.61,122.35Zm0-10.91a3.94,3.94,0,1,0,3.93,3.94A3.95,3.95,0,0,0,51.61,111.44Z"/><path d="M140.6,136a1.52,1.52,0,0,1-1.52-1.52v-5.26a1.52,1.52,0,0,1,3,0v5.26A1.52,1.52,0,0,1,140.6,136Z"/><path d="M49.4,136a1.52,1.52,0,0,1-1.52-1.52v-5.26a1.52,1.52,0,1,1,3,0v5.26A1.52,1.52,0,0,1,49.4,136Z"/><path d="M95,100.78a1.52,1.52,0,0,1-1.52-1.52V94a1.52,1.52,0,0,1,3,0v5.26A1.52,1.52,0,0,1,95,100.78Z"/><path d="M120.91,111.44a1.52,1.52,0,0,1-1.52-1.52v-5.27a1.52,1.52,0,0,1,3,0v5.27A1.52,1.52,0,0,1,120.91,111.44Z"/><path d="M69.09,111a1.52,1.52,0,0,1-1.52-1.52V104.2a1.52,1.52,0,1,1,3,0v5.27A1.52,1.52,0,0,1,69.09,111Z"/><path d="M51.61,111a1.52,1.52,0,0,1-1.52-1.52V104.2a1.52,1.52,0,0,1,3,0v5.27A1.52,1.52,0,0,1,51.61,111Z"/><path d="M142.47,95.55h-8.68A1.52,1.52,0,0,1,132.27,94V77.15a1.52,1.52,0,0,1,1.52-1.52h8.68A1.52,1.52,0,0,1,144,77.15V94A1.52,1.52,0,0,1,142.47,95.55Zm-7.16-3H141V78.67h-5.64Z"/><rect x="133.79" y="84.07" width="8.68" height="3.04"/></svg>