<svg id="Слой_1" data-name="Слой 1" xmlns="http://www.w3.org/2000/svg" width="190" height="190" viewBox="0 0 190 190"><path d="M138.3,143.59H51.7A3.68,3.68,0,0,1,48,139.91V126.39a3.68,3.68,0,0,1,3.68-3.68h86.6a3.68,3.68,0,0,1,3.68,3.68v13.52A3.68,3.68,0,0,1,138.3,143.59ZM51.7,125.75a.64.64,0,0,0-.64.64v13.52a.64.64,0,0,0,.64.64h86.6a.64.64,0,0,0,.64-.64V126.39a.64.64,0,0,0-.64-.64Z"/><path d="M149.83,116.53H40.17a6.33,6.33,0,0,1-6.32-6.32V52.72a6.32,6.32,0,0,1,6.32-6.31H149.83a6.32,6.32,0,0,1,6.32,6.31v57.49A6.33,6.33,0,0,1,149.83,116.53ZM40.17,49.45a3.28,3.28,0,0,0-3.28,3.27v57.49a3.28,3.28,0,0,0,3.28,3.28H149.83a3.28,3.28,0,0,0,3.28-3.28V52.72a3.28,3.28,0,0,0-3.28-3.27Z"/><path d="M113.59,136.85H76.41a1.52,1.52,0,0,1-1.52-1.52v-11.1a1.52,1.52,0,0,1,1.52-1.52h37.18a1.52,1.52,0,0,1,1.52,1.52v11.1A1.52,1.52,0,0,1,113.59,136.85Zm-35.66-3h34.14v-8.06H77.93Z"/><path d="M97.29,131.3H92.71a1.52,1.52,0,1,1,0-3h4.58a1.52,1.52,0,0,1,0,3Z"/><path d="M97.29,111.16H92.71a1.52,1.52,0,0,1,0-3h4.58a1.52,1.52,0,0,1,0,3Z"/><path d="M107.93,131.3h-4.58a1.52,1.52,0,1,1,0-3h4.58a1.52,1.52,0,0,1,0,3Z"/><path d="M133.77,131.3h-4.58a1.52,1.52,0,1,1,0-3h4.58a1.52,1.52,0,0,1,0,3Z"/><path d="M86.65,131.3H82.07a1.52,1.52,0,1,1,0-3h4.58a1.52,1.52,0,0,1,0,3Z"/></svg>