<svg id="Слой_1" data-name="Слой 1" xmlns="http://www.w3.org/2000/svg" width="190" height="190" viewBox="0 0 190 190"><path d="M52.44,128.93H40.5A1.52,1.52,0,0,1,39,127.41v-6a1.52,1.52,0,0,1,1.52-1.52H52.44A1.52,1.52,0,0,1,54,121.39v6A1.52,1.52,0,0,1,52.44,128.93Zm-10.42-3h8.9v-3H42Z"/><path d="M73.5,128.93H61.56A1.52,1.52,0,0,1,60,127.41v-6a1.52,1.52,0,0,1,1.52-1.52H73.5A1.52,1.52,0,0,1,75,121.39v6A1.52,1.52,0,0,1,73.5,128.93Zm-10.42-3H72v-3h-8.9Z"/><path d="M128.44,128.93H116.5a1.52,1.52,0,0,1-1.52-1.52v-6a1.52,1.52,0,0,1,1.52-1.52h11.94a1.52,1.52,0,0,1,1.52,1.52v6A1.52,1.52,0,0,1,128.44,128.93Zm-10.42-3h8.9v-3H118Z"/><path d="M149.5,128.93H137.56a1.52,1.52,0,0,1-1.52-1.52v-6a1.52,1.52,0,0,1,1.52-1.52H149.5a1.52,1.52,0,0,1,1.52,1.52v6A1.52,1.52,0,0,1,149.5,128.93Zm-10.42-3H148v-3h-8.9Z"/><path d="M133,115.46A21.45,21.45,0,1,1,154.45,94,21.48,21.48,0,0,1,133,115.46Zm0-39.86A18.41,18.41,0,1,0,151.41,94,18.43,18.43,0,0,0,133,75.6Z"/><path d="M133,102.73A8.73,8.73,0,1,1,141.72,94,8.73,8.73,0,0,1,133,102.73Zm0-14.41A5.69,5.69,0,1,0,138.68,94,5.69,5.69,0,0,0,133,88.32Z"/><path d="M57,102.73A8.73,8.73,0,1,1,65.72,94,8.73,8.73,0,0,1,57,102.73Zm0-14.41A5.69,5.69,0,1,0,62.68,94,5.69,5.69,0,0,0,57,88.32Z"/><path d="M57,115.46A21.45,21.45,0,1,1,78.45,94,21.48,21.48,0,0,1,57,115.46ZM57,75.6A18.41,18.41,0,1,0,75.41,94,18.43,18.43,0,0,0,57,75.6Z"/><circle cx="87.02" cy="65.3" r="2.74"/><circle cx="71.82" cy="65.3" r="2.74"/><circle cx="56.62" cy="65.3" r="2.74"/><circle cx="41.42" cy="65.3" r="2.74"/><circle cx="102.98" cy="65.3" r="2.74"/><circle cx="87.02" cy="80.5" r="2.74"/><circle cx="102.98" cy="80.5" r="2.74"/><circle cx="118.18" cy="65.3" r="2.74"/><circle cx="133.38" cy="65.3" r="2.74"/><circle cx="148.58" cy="65.3" r="2.74"/><path d="M153.73,136H36.27a6.89,6.89,0,0,1-6.88-6.88V61.94a6.89,6.89,0,0,1,6.88-6.88H153.73a6.89,6.89,0,0,1,6.88,6.88v67.17A6.89,6.89,0,0,1,153.73,136ZM36.27,58.1a3.84,3.84,0,0,0-3.84,3.84v67.17A3.84,3.84,0,0,0,36.27,133H153.73a3.84,3.84,0,0,0,3.84-3.84V61.94a3.84,3.84,0,0,0-3.84-3.84Z"/><path d="M103,114.23a1.52,1.52,0,0,1-1.52-1.52V95.53a1.52,1.52,0,0,1,3,0v17.18A1.52,1.52,0,0,1,103,114.23Z"/><path d="M103,128.92a1.51,1.51,0,0,1-1.52-1.51v-8.68a1.52,1.52,0,1,1,3,0v8.68A1.51,1.51,0,0,1,103,128.92Z"/><path d="M87,105a1.52,1.52,0,0,1-1.52-1.52v-8a1.52,1.52,0,0,1,3,0v8A1.52,1.52,0,0,1,87,105Z"/><path d="M87,128.92a1.51,1.51,0,0,1-1.52-1.51V109.53a1.52,1.52,0,0,1,3,0v17.88A1.51,1.51,0,0,1,87,128.92Z"/><path d="M89.66,111.05H84.38a4.53,4.53,0,1,1,0-9h5.28a4.53,4.53,0,1,1,0,9Zm-5.28-6a1.49,1.49,0,0,0,0,3h5.28a1.49,1.49,0,1,0,0-3Z"/><path d="M105.62,120.25h-5.28a4.53,4.53,0,0,1,0-9.06h5.28a4.53,4.53,0,0,1,0,9.06Zm-5.28-6a1.49,1.49,0,0,0,0,3h5.28a1.49,1.49,0,0,0,0-3Z"/></svg>