<svg id="Слой_1" data-name="Слой 1" xmlns="http://www.w3.org/2000/svg" width="190" height="190" viewBox="0 0 190 190"><path d="M115.57,130.73H74.43A4.48,4.48,0,0,1,70,126.25V67.64a4.47,4.47,0,0,1,4.47-4.47h41.14A4.47,4.47,0,0,1,120,67.64v58.61A4.48,4.48,0,0,1,115.57,130.73ZM74.43,66.21A1.43,1.43,0,0,0,73,67.64v58.61a1.44,1.44,0,0,0,1.43,1.44h41.14a1.44,1.44,0,0,0,1.43-1.44V67.64a1.43,1.43,0,0,0-1.43-1.43Z"/><path d="M95,118.32a11.45,11.45,0,1,1,11.45-11.45A11.46,11.46,0,0,1,95,118.32Zm0-19.85a8.41,8.41,0,1,0,8.41,8.4A8.41,8.41,0,0,0,95,98.47Z"/><path d="M95,90.08a7.1,7.1,0,1,1,7.1-7.1A7.1,7.1,0,0,1,95,90.08Zm0-11.16A4.06,4.06,0,1,0,99.06,83,4.06,4.06,0,0,0,95,78.92Z"/><circle cx="95" cy="106.87" r="2.65"/><path d="M111.13,136a1.52,1.52,0,0,1-1.52-1.52v-5.26a1.52,1.52,0,1,1,3,0v5.26A1.52,1.52,0,0,1,111.13,136Z"/><path d="M78.87,136a1.52,1.52,0,0,1-1.52-1.52v-5.26a1.52,1.52,0,1,1,3,0v5.26A1.52,1.52,0,0,1,78.87,136Z"/><path d="M63.41,104.19a1.52,1.52,0,0,1-1.52-1.52V91.22a1.52,1.52,0,0,1,3,0v11.45A1.52,1.52,0,0,1,63.41,104.19Z"/><path d="M126.59,104.19a1.52,1.52,0,0,1-1.52-1.52V91.22a1.52,1.52,0,0,1,3,0v11.45A1.52,1.52,0,0,1,126.59,104.19Z"/><path d="M132,114.29a1.43,1.43,0,0,1-.66-.16,1.51,1.51,0,0,1-.7-2,34.52,34.52,0,0,0,0-30.31,1.52,1.52,0,0,1,2.73-1.33,37.53,37.53,0,0,1,0,33A1.52,1.52,0,0,1,132,114.29Z"/><path d="M58,114.29a1.52,1.52,0,0,1-1.37-.86,37.52,37.52,0,0,1,0-33,1.52,1.52,0,0,1,2.73,1.33,34.52,34.52,0,0,0,0,30.31,1.51,1.51,0,0,1-.7,2A1.43,1.43,0,0,1,58,114.29Z"/></svg>