<svg id="Слой_1" data-name="Слой 1" xmlns="http://www.w3.org/2000/svg" width="190" height="190" viewBox="0 0 190 190"><path d="M119.6,125.13a6.28,6.28,0,0,1-6.28-6.27V101a6.28,6.28,0,0,1,12.55,0v17.89A6.27,6.27,0,0,1,119.6,125.13Zm0-27.4a3.25,3.25,0,0,0-3.24,3.24v17.89a3.24,3.24,0,0,0,6.48,0V101A3.25,3.25,0,0,0,119.6,97.73Z"/><path d="M70.4,125.13a6.27,6.27,0,0,1-6.27-6.27V101a6.28,6.28,0,0,1,12.55,0v17.89A6.28,6.28,0,0,1,70.4,125.13Zm0-27.4A3.24,3.24,0,0,0,67.17,101v17.89a3.24,3.24,0,0,0,6.47,0V101A3.25,3.25,0,0,0,70.4,97.73Z"/><path d="M119.6,97.73a1.52,1.52,0,0,1-1.52-1.52,23.08,23.08,0,0,0-46.16,0,1.52,1.52,0,0,1-3,0,26.12,26.12,0,0,1,52.24,0A1.52,1.52,0,0,1,119.6,97.73Z"/><path d="M65.79,121.54a1.55,1.55,0,0,1-.63-.13,12.64,12.64,0,0,1,0-23,1.52,1.52,0,0,1,1.26,2.77,9.59,9.59,0,0,0,0,17.45,1.52,1.52,0,0,1-.63,2.9Z"/><path d="M124.21,121.54a1.52,1.52,0,0,1-.63-2.9,9.59,9.59,0,0,0,0-17.45,1.52,1.52,0,0,1,1.26-2.77,12.64,12.64,0,0,1,0,23A1.55,1.55,0,0,1,124.21,121.54Z"/></svg>