<svg id="Слой_1" data-name="Слой 1" xmlns="http://www.w3.org/2000/svg" width="190" height="190" viewBox="0 0 190 190"><path d="M146,143.59H44a6.66,6.66,0,0,1-6.66-6.66V65.36A6.66,6.66,0,0,1,44,58.7H146a6.66,6.66,0,0,1,6.66,6.66v71.57A6.66,6.66,0,0,1,146,143.59ZM44,61.74a3.63,3.63,0,0,0-3.63,3.62v71.57A3.63,3.63,0,0,0,44,140.55H146a3.62,3.62,0,0,0,3.62-3.62V65.36A3.63,3.63,0,0,0,146,61.74Z"/><path d="M77.73,130.66a29.52,29.52,0,1,1,29.51-29.51A29.55,29.55,0,0,1,77.73,130.66Zm0-56a26.48,26.48,0,1,0,26.47,26.48A26.51,26.51,0,0,0,77.73,74.67Z"/><path d="M77.73,123.49a1.52,1.52,0,0,1,0-3A19.32,19.32,0,0,0,97,101.15a1.52,1.52,0,1,1,3,0A22.37,22.37,0,0,1,77.73,123.49Z"/><circle cx="77.73" cy="101.15" r="4.61"/><path d="M109.76,121.94a1.55,1.55,0,0,1-1.08-.44,1.54,1.54,0,0,1,0-2.16l4.91-4.9V78.68h-3.66a1.52,1.52,0,0,1-1.52-1.52V69.34a1.52,1.52,0,0,1,1.52-1.52h5.18a1.52,1.52,0,0,1,1.52,1.52v45.73a1.49,1.49,0,0,1-.45,1.07l-5.35,5.36A1.55,1.55,0,0,1,109.76,121.94Zm1.69-46.29h2.14V70.86h-2.14Z"/><path d="M126.71,89.26a1.52,1.52,0,0,1-1.52-1.52V73.15a1.52,1.52,0,1,1,3,0V87.74A1.52,1.52,0,0,1,126.71,89.26Z"/><path d="M126.71,102a1.52,1.52,0,0,1-1.52-1.52v-5a1.52,1.52,0,0,1,3,0v5A1.52,1.52,0,0,1,126.71,102Z"/><path d="M139.25,79a1.52,1.52,0,0,1-1.52-1.52V73.15a1.52,1.52,0,1,1,3,0v4.37A1.52,1.52,0,0,1,139.25,79Z"/><path d="M139.25,102a1.52,1.52,0,0,1-1.52-1.52V85.17a1.52,1.52,0,0,1,3,0v15.27A1.52,1.52,0,0,1,139.25,102Z"/><path d="M130.53,122.62h-7.64a1.51,1.51,0,0,1-1.52-1.51v-7.65a1.52,1.52,0,0,1,1.52-1.52h7.64a1.52,1.52,0,0,1,1.52,1.52v7.65A1.51,1.51,0,0,1,130.53,122.62Zm-6.13-3H129V115H124.4Z"/><path d="M143.07,122.62h-7.64a1.51,1.51,0,0,1-1.52-1.51v-7.65a1.52,1.52,0,0,1,1.52-1.52h7.64a1.52,1.52,0,0,1,1.52,1.52v7.65A1.51,1.51,0,0,1,143.07,122.62Zm-6.13-3h4.61V115h-4.61Z"/><path d="M130.53,130.66h-7.64a1.52,1.52,0,1,1,0-3h7.64a1.52,1.52,0,1,1,0,3Z"/><path d="M139.25,130.66h-3.82a1.52,1.52,0,0,1,0-3h3.82a1.52,1.52,0,1,1,0,3Z"/><path d="M126.71,96.91a5.35,5.35,0,1,1,5.34-5.35A5.35,5.35,0,0,1,126.71,96.91Zm0-7.65a2.31,2.31,0,1,0,2.3,2.3A2.31,2.31,0,0,0,126.71,89.26Z"/><path d="M139.25,86.69a5.35,5.35,0,1,1,5.34-5.35A5.35,5.35,0,0,1,139.25,86.69Zm0-7.65a2.31,2.31,0,1,0,2.3,2.3A2.31,2.31,0,0,0,139.25,79Z"/></svg>