<svg width="70" height="32" viewBox="0 0 70 32" fill="none" xmlns="http://www.w3.org/2000/svg">
<rect width="70" height="32" fill="#F5F5F5"/>
<rect width="1440" height="4050" transform="translate(-73 -33)" fill="black"/>
<g clip-path="url(#clip0_0_1)">
<path d="M0.13916 11.7724V4.61525H2.46279V7.18078L2.60194 7.32575V14.0683H0.13916V11.7724ZM5.45308 7.25158C5.31726 7.08782 5.14707 6.95885 4.95569 6.87466C4.76432 6.79047 4.55689 6.75333 4.34951 6.76612C4.07883 6.75934 3.81046 6.81941 3.56634 6.94142C3.34405 7.06318 3.15821 7.24628 3.02913 7.47071C2.8753 7.7349 2.76586 8.02449 2.70551 8.32701C2.62722 8.71148 2.59031 9.10385 2.59547 9.49684H2.07767V7.96628C2.09961 7.48313 2.20143 7.00755 2.37864 6.56047C2.53936 6.14726 2.77568 5.77056 3.07444 5.45133C3.35864 5.1468 3.69871 4.9049 4.07444 4.73999C4.46207 4.5724 4.87805 4.48756 5.29774 4.49052C5.68626 4.48674 6.07152 4.56471 6.43042 4.71976C6.77197 4.86809 7.07963 5.0898 7.33333 5.37041C7.59787 5.66398 7.80652 6.00718 7.94822 6.38179C8.10408 6.78283 8.18851 7.21009 8.19741 7.64265L8.29774 8.11799V14.075H5.84142V8.79562C5.88511 8.24983 5.74806 7.70493 5.45308 7.25158ZM11.4239 7.92583C11.3568 7.68226 11.2471 7.45368 11.1003 7.25158C10.9686 7.07753 10.7925 6.94553 10.5922 6.87062C10.3848 6.79248 10.1656 6.75366 9.94499 6.756C9.69406 6.74898 9.44526 6.80568 9.22007 6.9212C9.01045 7.03497 8.83473 7.20635 8.71198 7.41677C8.56668 7.67611 8.46695 7.96038 8.41748 8.25621C8.34636 8.63483 8.31274 9.02005 8.31716 9.40581H7.58253V7.95617C7.60337 7.47217 7.70751 6.996 7.88997 6.55036C8.05979 6.13489 8.30607 5.75809 8.61489 5.44121C8.91141 5.13651 9.26206 4.89491 9.64725 4.72988C10.0511 4.55968 10.4835 4.47487 10.9191 4.4804C11.3368 4.47742 11.7511 4.5587 12.1392 4.71976C12.5039 4.87247 12.8344 5.10202 13.11 5.39401C13.3901 5.69425 13.6101 6.0495 13.7573 6.4391C13.9206 6.87738 14.0008 7.34449 13.9935 7.81458V14.0615H11.5307V8.86978C11.5398 8.55138 11.5039 8.23331 11.4239 7.92583Z" fill="white"/>
<path d="M17.9676 14.0076C17.5844 13.8492 17.2411 13.6012 16.9644 13.2828C16.6705 12.9304 16.4501 12.5182 16.3172 12.0725C16.1502 11.521 16.0704 10.9448 16.0809 10.3666V4.61525H18.5437V9.78677C18.5437 10.5453 18.6731 11.1016 18.9385 11.4522C19.0792 11.6312 19.2589 11.7726 19.4627 11.8647C19.6665 11.9567 19.8884 11.9968 20.11 11.9815C20.3837 11.9864 20.6552 11.93 20.9061 11.8163C21.145 11.7056 21.3531 11.534 21.5113 11.3173C21.6856 11.0777 21.8111 10.8035 21.8803 10.5116C21.9636 10.1529 22.0038 9.7849 22 9.41593V4.61525H24.4628V14.0548H22.1392V11.4083L22.3981 11.8837C22.3056 12.2126 22.1683 12.5259 21.9903 12.8142C21.8156 13.101 21.5969 13.3561 21.343 13.5693C21.0736 13.7956 20.7664 13.9682 20.4369 14.0784C20.0614 14.2028 19.6691 14.2631 19.2751 14.2571C18.8278 14.264 18.3835 14.1792 17.9676 14.0076Z" fill="white"/>
<path d="M28.4854 14.1323C28.1537 14.068 27.8286 13.9709 27.5146 13.8424C27.2301 13.7255 26.9606 13.5727 26.712 13.3873C26.4712 13.2108 26.2536 13.0022 26.0647 12.767L27.2168 11.1521C27.5249 11.4823 27.8892 11.7498 28.2913 11.941C28.7136 12.1469 29.1745 12.2528 29.6408 12.2512C29.8245 12.2546 30.0079 12.2365 30.1877 12.1972C30.3208 12.1714 30.4489 12.1224 30.5663 12.0523C30.6587 11.9967 30.734 11.9148 30.7832 11.8163C30.8315 11.7111 30.8558 11.5957 30.8544 11.4791C30.8551 11.3584 30.8257 11.2396 30.7689 11.1344C30.7122 11.0292 30.6301 10.9412 30.5307 10.8791C30.2718 10.7067 29.9949 10.5653 29.7055 10.4577C29.3819 10.3262 29.0194 10.188 28.6343 10.043C28.2568 9.90228 27.8971 9.71436 27.5631 9.48336C27.231 9.25883 26.9495 8.96211 26.7379 8.61357C26.5072 8.21224 26.3947 7.74923 26.4142 7.28192C26.4069 6.86054 26.4991 6.44374 26.6829 6.06827C26.8614 5.71846 27.1136 5.41534 27.4207 5.18163C27.7544 4.92769 28.131 4.74128 28.5307 4.63211C28.9941 4.5035 29.472 4.44112 29.9515 4.44669C30.298 4.44418 30.6438 4.47806 30.9838 4.54783C31.2809 4.61152 31.573 4.69829 31.8576 4.80742C32.1093 4.90479 32.3502 5.03026 32.5761 5.18163C32.7664 5.31187 32.9451 5.45968 33.11 5.62326L32.0388 7.28192C31.7661 7.02391 31.4545 6.81435 31.1165 6.66161C30.775 6.50965 30.407 6.43276 30.0356 6.43574C29.715 6.40685 29.3939 6.48603 29.1197 6.66161C29.0395 6.71669 28.9725 6.79041 28.9243 6.87699C28.876 6.96357 28.8476 7.06063 28.8414 7.16056C28.8395 7.27907 28.8706 7.39562 28.9309 7.49613C28.9912 7.59664 29.0781 7.6768 29.1812 7.72693C29.4432 7.86891 29.7187 7.9819 30.0032 8.06406C30.3269 8.1652 30.6829 8.27982 31.068 8.40119C31.4474 8.52363 31.8081 8.70185 32.1392 8.93047C32.4696 9.15564 32.7508 9.45087 32.9644 9.79689C33.1982 10.2215 33.3105 10.707 33.288 11.196C33.3021 11.6786 33.2033 12.1576 33 12.5917C32.815 12.9632 32.5462 13.2825 32.2168 13.5221C31.8618 13.7754 31.4628 13.954 31.0421 14.048C30.2011 14.2441 29.3313 14.2659 28.4822 14.1121L28.4854 14.1323Z" fill="white"/>
<path d="M35.2298 2.51497C35.0948 2.38069 34.9886 2.21812 34.9183 2.03797C34.848 1.85783 34.8152 1.6642 34.822 1.46988C34.8137 1.27235 34.8457 1.07523 34.916 0.891572C34.9863 0.707915 35.0932 0.541914 35.2298 0.404562C35.5244 0.125826 35.9132 -0.0196848 36.3107 6.3862e-06C36.5021 -0.009881 36.6935 0.0208852 36.8732 0.09043C37.0529 0.159975 37.2172 0.26685 37.356 0.404562C37.4862 0.545647 37.5875 0.712845 37.6537 0.895986C37.7199 1.07913 37.7496 1.27438 37.7411 1.46988C37.7481 1.66215 37.7176 1.85391 37.6514 2.03354C37.5852 2.21317 37.4847 2.37695 37.356 2.51497C37.2172 2.65268 37.0529 2.75956 36.8732 2.8291C36.6935 2.89864 36.5021 2.92941 36.3107 2.91952C35.9132 2.93921 35.5244 2.7937 35.2298 2.51497Z" fill="white"/>
<path d="M64.3495 14.4796C64.2148 14.345 64.1089 14.1824 64.0386 14.0023C63.9684 13.8222 63.9354 13.6287 63.9418 13.4345C63.9334 13.2369 63.9655 13.0398 64.0357 12.8562C64.106 12.6725 64.213 12.5065 64.3495 12.3691C64.6398 12.0886 65.025 11.9395 65.4207 11.9545C65.6117 11.9447 65.8026 11.9755 65.9817 12.045C66.1609 12.1146 66.3246 12.2214 66.4628 12.359C66.594 12.4995 66.6962 12.6665 66.763 12.8497C66.8298 13.033 66.8598 13.2286 66.8511 13.4244C66.8579 13.6169 66.8269 13.8088 66.7602 13.9885C66.6934 14.1682 66.5922 14.3318 66.4628 14.4694C66.324 14.606 66.1601 14.7119 65.9811 14.7808C65.802 14.8498 65.6114 14.8803 65.4207 14.8706C65.0284 14.8906 64.6441 14.7503 64.3495 14.4796Z" fill="white"/>
<path d="M64.1909 31.5954C64.0557 31.4613 63.9495 31.2988 63.8792 31.1186C63.8089 30.9384 63.7761 30.7447 63.7832 30.5504C63.7752 30.3529 63.8075 30.1559 63.8777 29.9723C63.948 29.7887 64.0547 29.6226 64.1909 29.485C64.4855 29.2063 64.8743 29.0608 65.2718 29.0805C65.4633 29.0706 65.6547 29.1014 65.8344 29.1709C66.0141 29.2404 66.1783 29.3473 66.3171 29.485C66.447 29.6263 66.5481 29.7936 66.6143 29.9767C66.6805 30.1598 66.7104 30.3549 66.7023 30.5504C66.7094 30.7427 66.679 30.9345 66.6128 31.1141C66.5466 31.2938 66.446 31.4575 66.3171 31.5954C66.1783 31.7332 66.0141 31.84 65.8344 31.9096C65.6547 31.9791 65.4633 32.0099 65.2718 32C64.8743 32.0197 64.4855 31.8742 64.1909 31.5954Z" fill="white"/>
<path d="M21.8317 31.5954C21.6965 31.4613 21.5903 31.2988 21.52 31.1186C21.4497 30.9384 21.417 30.7447 21.424 30.5504C21.416 30.3529 21.4483 30.1559 21.5185 29.9723C21.5888 29.7887 21.6955 29.6226 21.8317 29.485C22.1263 29.2063 22.5151 29.0608 22.9126 29.0805C23.1041 29.0706 23.2955 29.1014 23.4752 29.1709C23.6549 29.2404 23.8191 29.3473 23.9579 29.485C24.0878 29.6263 24.1889 29.7936 24.2551 29.9767C24.3213 30.1598 24.3512 30.3549 24.3431 30.5504C24.3502 30.7427 24.3198 30.9345 24.2536 31.1141C24.1874 31.2938 24.0868 31.4575 23.9579 31.5954C23.8191 31.7332 23.6549 31.84 23.4752 31.9096C23.2955 31.9791 23.1041 32.0099 22.9126 32C22.5151 32.0197 22.1263 31.8742 21.8317 31.5954Z" fill="white"/>
<path d="M37.5016 4.61525H35.0388V14.0716H37.5016V4.61525Z" fill="white"/>
<path d="M42.1003 13.8761C41.5379 13.6657 41.0265 13.3297 40.6019 12.8917C40.1794 12.4524 39.8488 11.9267 39.6311 11.3477C39.3928 10.719 39.2741 10.048 39.2815 9.37211C39.2706 8.66119 39.396 7.95515 39.6505 7.29541C39.8767 6.71035 40.2224 6.18351 40.6634 5.75138C41.1026 5.33208 41.616 5.00576 42.1748 4.79057C42.7805 4.55785 43.4223 4.44357 44.0679 4.45344C44.4352 4.45289 44.8016 4.49015 45.1618 4.56469C45.5001 4.6371 45.8323 4.73743 46.1553 4.86473C46.449 4.9837 46.729 5.13635 46.9903 5.31986C47.2245 5.4895 47.4414 5.6838 47.6375 5.89971L46.3689 7.65951C46.0983 7.3624 45.7822 7.11407 45.4336 6.92457C45.0706 6.7339 44.6686 6.63787 44.2621 6.64476C43.9213 6.63901 43.5831 6.70673 43.2686 6.84366C42.9799 6.97059 42.7203 7.15965 42.5067 7.39844C42.2931 7.63723 42.1303 7.92035 42.0291 8.22925C41.9122 8.57108 41.8542 8.93172 41.8576 9.29457C41.8545 9.67145 41.9158 10.0459 42.0388 10.4003C42.1491 10.7236 42.3171 11.0221 42.534 11.2802C42.746 11.5299 43.0108 11.725 43.3074 11.85C43.6295 11.9839 43.9737 12.0503 44.3204 12.0455C44.7304 12.0564 45.1365 11.9602 45.5016 11.7657C45.8428 11.5782 46.1496 11.3294 46.4078 11.0308L47.8576 12.5209C47.4419 13.0784 46.8944 13.514 46.2686 13.7851C45.5681 14.0811 44.8174 14.2268 44.0615 14.2132C43.394 14.2199 42.7304 14.1059 42.1003 13.8761Z" fill="white"/>
<path d="M1.89643 26.7678C1.51359 26.6086 1.17053 26.3607 0.893195 26.043C0.597758 25.6917 0.377159 25.2792 0.245946 24.8327C0.0776145 24.2814 -0.00327661 23.7052 0.00646154 23.1268V17.3721H2.46924V22.547C2.42431 23.1325 2.56408 23.7172 2.86731 24.2124C3.00854 24.3908 3.18835 24.5317 3.39199 24.6237C3.59563 24.7157 3.8173 24.7562 4.03883 24.7417C4.31228 24.7443 4.58331 24.688 4.83494 24.5765C5.072 24.4644 5.2796 24.2944 5.44012 24.0809C5.61404 23.8402 5.73851 23.5648 5.80581 23.2718C5.89072 22.9135 5.93097 22.5452 5.92556 22.1761V17.3721H8.39158V26.8319H6.06471V24.182L6.32361 24.6574C6.23056 24.9871 6.09329 25.3015 5.91585 25.5912C5.74111 25.8771 5.52245 26.1311 5.2686 26.343C5.00225 26.5642 4.69962 26.7332 4.37539 26.842C3.99976 26.9654 3.6074 27.0246 3.21358 27.0173C2.76308 27.0249 2.31554 26.9401 1.89643 26.7678Z" fill="white"/>
<path d="M10.7476 24.5327V17.3721H13.0712V19.941L13.2103 20.086V26.8285H10.7476V24.5327ZM16.8252 20.7366C16.7463 20.4821 16.6186 20.247 16.4498 20.0455C16.2942 19.867 16.0985 19.7315 15.8802 19.6511C15.6732 19.5704 15.4541 19.5282 15.233 19.5263C14.9393 19.5196 14.6487 19.5903 14.3883 19.732C14.1405 19.8698 13.9207 20.0564 13.7411 20.2815C13.5579 20.5191 13.4235 20.7933 13.3463 21.0872C13.2568 21.4161 13.2132 21.7568 13.2168 22.0986H12.7346V19.9275C12.814 19.5723 12.9438 19.2314 13.1197 18.9161C13.2981 18.5927 13.5304 18.305 13.8058 18.0666C14.1024 17.815 14.4385 17.6188 14.7993 17.4867C15.6647 17.1891 16.6006 17.1997 17.4595 17.5171C17.8598 17.6761 18.2205 17.9274 18.5145 18.252C18.817 18.5986 19.0463 19.0075 19.1877 19.4522C19.357 19.9893 19.438 20.5523 19.4272 21.1176V26.8487H16.9644V21.7918C16.974 21.4345 16.927 21.078 16.8252 20.7366Z" fill="white"/>
<path d="M24.1133 17.3755H21.6505V26.8319H24.1133V17.3755Z" fill="white"/>
<path d="M25.424 17.8508V17.3721H27.8803L30.6634 24.0371H29.589L32.178 17.3721H34.4822V17.8306L30.6473 26.8925H29.3528L25.424 17.8508Z" fill="white"/>
<path d="M37.9385 26.6329C37.3577 26.4248 36.826 26.0904 36.3786 25.6519C35.9457 25.2204 35.6012 24.702 35.3657 24.1281C35.1162 23.5106 34.9917 22.8461 35 22.1761C34.9907 21.4702 35.1184 20.7696 35.3754 20.1163C35.6116 19.5269 35.9632 18.9953 36.4078 18.5554C36.8536 18.1217 37.377 17.7838 37.9482 17.5609C38.5489 17.3301 39.185 17.2159 39.8252 17.2238C40.4832 17.213 41.1363 17.3427 41.7443 17.6047C42.2849 17.8447 42.7687 18.2049 43.1618 18.6599C43.5527 19.1192 43.8529 19.6541 44.0453 20.2343C44.2607 20.8547 44.3702 21.5096 44.3689 22.1694V22.7054H36.4304V21.1547H43.5016L42.0129 22.2503V21.5255C42.0137 21.2285 41.9587 20.9341 41.8511 20.6591C41.7517 20.3886 41.5959 20.1445 41.3948 19.9444C41.189 19.7373 40.9459 19.5747 40.6796 19.4656C40.3748 19.3451 40.0509 19.2856 39.7249 19.2903C39.3916 19.2868 39.0612 19.3545 38.754 19.4892C38.4696 19.6105 38.2151 19.7972 38.0097 20.0354C37.8003 20.2886 37.6379 20.5801 37.5307 20.8951C37.4065 21.2643 37.3463 21.6535 37.3527 22.0447C37.3446 22.4673 37.4116 22.8879 37.5501 23.2853C37.6727 23.6282 37.8661 23.9389 38.1165 24.1955C38.3723 24.4506 38.6781 24.645 39.0129 24.7653C39.3764 24.8997 39.7599 24.9659 40.1456 24.9608C40.652 24.9655 41.1545 24.8671 41.6246 24.6709C42.0653 24.4889 42.4573 24.1986 42.767 23.8247L44.1359 25.126C43.6568 25.7373 43.0381 26.2137 42.3366 26.5116C41.5789 26.8391 40.7651 27.002 39.945 26.9903C39.2613 26.9939 38.5822 26.873 37.9385 26.6329Z" fill="white"/>
<path d="M51.1294 17.2608C51.256 17.266 51.3817 17.2841 51.5048 17.3148V19.6747C51.3482 19.6307 51.1894 19.5958 51.0291 19.5702C50.8577 19.5433 50.6846 19.5298 50.5113 19.5297C50.2196 19.5214 49.9295 19.5777 49.6602 19.6949C49.4286 19.7993 49.2261 19.9628 49.0712 20.1702C48.9147 20.3999 48.8046 20.6602 48.7476 20.9355C48.6712 21.2895 48.6354 21.6516 48.6408 22.0143V26.8352H46.1747V17.3721H48.521V20.086L48.301 19.6072C48.346 19.3267 48.4232 19.0528 48.5307 18.7914C48.641 18.5117 48.7952 18.2531 48.987 18.0261C49.1912 17.7876 49.4416 17.5969 49.7217 17.4665C50.0565 17.3158 50.4185 17.2422 50.7832 17.2507L51.1294 17.2608Z" fill="white"/>
<path d="M54.644 26.8925C54.3121 26.8289 53.987 26.7318 53.6731 26.6026C53.3893 26.4843 53.12 26.3316 52.8705 26.1475C52.6297 25.971 52.4121 25.7625 52.2233 25.5272L53.3786 23.9123C53.6848 24.2424 54.0483 24.509 54.4498 24.6978C54.8715 24.9063 55.3326 25.0135 55.7993 25.0114C55.983 25.0133 56.1663 24.9952 56.3463 24.9574C56.4794 24.9316 56.6074 24.8826 56.7249 24.8125C56.8173 24.7569 56.8925 24.6751 56.9417 24.5765C56.99 24.4713 57.0144 24.3559 57.0129 24.2394C57.0135 24.1192 56.9839 24.0009 56.9271 23.8963C56.8704 23.7916 56.7884 23.7042 56.6893 23.6427C56.4298 23.4704 56.1531 23.328 55.8641 23.2179C55.5404 23.0864 55.1748 22.9482 54.7896 22.8032C54.413 22.6605 54.0535 22.4727 53.7184 22.2436C53.3878 22.0172 53.1066 21.7208 52.8932 21.3738C52.664 20.9718 52.5516 20.5093 52.5696 20.0421C52.5618 19.6218 52.6541 19.206 52.8382 18.8319C53.0152 18.4802 53.2664 18.1747 53.5728 17.9385C53.9079 17.6856 54.2855 17.5004 54.6861 17.3923C55.1483 17.2639 55.6252 17.2015 56.1036 17.2069C56.4502 17.2038 56.7963 17.2388 57.1359 17.3114C57.4344 17.372 57.7277 17.4577 58.0129 17.5676C58.2635 17.6639 58.5034 17.7882 58.7282 17.9385C58.9199 18.0679 59.0988 18.217 59.2621 18.3835L58.2006 20.0455C57.9277 19.7852 57.6149 19.5744 57.2751 19.4218C56.9336 19.2695 56.5656 19.1926 56.1942 19.196C55.8736 19.1675 55.5527 19.2467 55.2783 19.4218C55.1986 19.4773 55.1324 19.5512 55.0846 19.6377C55.0369 19.7243 55.009 19.8211 55.0032 19.9208C55.0008 20.0377 55.0298 20.1531 55.087 20.2538C55.1442 20.3544 55.2273 20.4365 55.3269 20.4905C55.5897 20.633 55.8663 20.746 56.1521 20.8276L57.2136 21.1648C57.594 21.2873 57.9557 21.4656 58.288 21.6941C58.6175 21.9194 58.8976 22.2146 59.11 22.5605C59.3454 22.9845 59.4578 23.4704 59.4337 23.9595C59.4473 24.4422 59.3485 24.9211 59.1456 25.3552C58.9584 25.7263 58.6888 26.0453 58.3592 26.2857C58.0049 26.5387 57.6071 26.7184 57.1877 26.815C56.7184 26.9263 56.2386 26.9818 55.7573 26.9802C55.3844 26.9878 55.0116 26.9585 54.644 26.8925Z" fill="white"/>
<path d="M63.5825 26.633C63.0017 26.4248 62.47 26.0904 62.0226 25.6519C61.5908 25.2195 61.2464 24.7014 61.0097 24.1281C60.7602 23.5106 60.6357 22.8461 60.644 22.1761C60.6347 21.4702 60.7624 20.7696 61.0194 20.1163C61.2556 19.5269 61.6072 18.9953 62.0518 18.5554C62.4976 18.1217 63.021 17.7838 63.5922 17.5609C64.193 17.3304 64.8291 17.2162 65.4692 17.2238C66.1272 17.213 66.7803 17.3427 67.3883 17.6047C67.9294 17.8439 68.4133 18.2041 68.8058 18.6599C69.1967 19.1192 69.4969 19.6541 69.6893 20.2343C69.9047 20.8547 70.0142 21.5096 70.0129 22.1694V22.7054H62.0744V21.1547H69.1456L67.6569 22.2503V21.5255C67.6577 21.2285 67.6028 20.9341 67.4951 20.6591C67.3957 20.3886 67.2399 20.1445 67.0388 19.9444C66.833 19.7373 66.5899 19.5747 66.3236 19.4656C66.0137 19.343 65.6842 19.2835 65.3527 19.2903C65.0195 19.2868 64.689 19.3545 64.3819 19.4892C64.0974 19.6105 63.8429 19.7972 63.6375 20.0354C63.4278 20.2877 63.2663 20.5795 63.1618 20.8951C63.0364 21.264 62.9751 21.6533 62.9806 22.0447C62.9734 22.4676 63.0414 22.8882 63.1812 23.2853C63.3015 23.6286 63.4939 23.9396 63.7443 24.1955C63.9973 24.4494 64.2997 24.6437 64.6311 24.7653C64.9946 24.8997 65.3781 24.9659 65.7637 24.9608C66.2702 24.9655 66.7726 24.8671 67.2427 24.6709C67.6835 24.4889 68.0754 24.1986 68.3851 23.8247L69.754 25.126C69.2758 25.7369 68.6583 26.2132 67.9579 26.5116C67.1991 26.8388 66.3843 27.0017 65.5631 26.9903C64.8881 26.9908 64.218 26.8699 63.5825 26.633Z" fill="white"/>
</g>
<defs>
<clipPath id="clip0_0_1">
<rect width="70" height="32" fill="white"/>
</clipPath>
</defs>
</svg>
