<svg width="25" height="24" viewBox="0 0 25 24" fill="none" xmlns="http://www.w3.org/2000/svg">
<path id="Vector" d="M12.4997 11.7891C11.2368 11.7891 10.2109 11.4095 9.42203 10.6502C8.63319 9.89092 8.23878 8.90639 8.23878 7.69661C8.23878 6.48681 8.63286 5.50285 9.42104 4.74475C10.2092 3.98665 11.2348 3.6076 12.4977 3.6076C13.7606 3.6076 14.788 3.98643 15.5798 4.74408C16.3715 5.50175 16.7674 6.48691 16.7674 7.69958C16.7674 8.90738 16.3719 9.89092 15.5808 10.6502C14.7896 11.4095 13.7626 11.7891 12.4997 11.7891ZM3.73242 20.75V17.9844C3.73242 17.2892 3.91253 16.6903 4.27273 16.1877C4.63293 15.6852 5.09858 15.3034 5.66969 15.0424C6.86345 14.5091 8.01832 14.1142 9.13427 13.8579C10.2502 13.6015 11.3707 13.4734 12.4959 13.4734C13.629 13.4734 14.7485 13.6067 15.8546 13.8734C16.9606 14.14 18.1098 14.5313 19.3021 15.0473C19.8969 15.3051 20.3743 15.6846 20.7341 16.1857C21.0939 16.6868 21.2738 17.2859 21.2738 17.9828V20.75H3.73242ZM5.74555 18.8174H19.2544V18.0071C19.2544 17.743 19.1793 17.4949 19.029 17.2629C18.8788 17.0309 18.6918 16.8666 18.468 16.7701C17.3603 16.2614 16.3394 15.9079 15.4053 15.7095C14.4713 15.5111 13.5007 15.412 12.4938 15.412C11.4951 15.412 10.5234 15.5121 9.57849 15.7125C8.63363 15.9129 7.61899 16.2651 6.53458 16.7692C6.29776 16.8715 6.10705 17.0358 5.96245 17.2619C5.81785 17.4881 5.74555 17.7364 5.74555 18.0071V18.8174ZM12.4987 9.85653C13.1427 9.85653 13.6785 9.65149 14.1064 9.24141C14.5341 8.83134 14.748 8.31706 14.748 7.69858C14.748 7.07846 14.5346 6.56271 14.1076 6.15133C13.6807 5.73995 13.1452 5.53425 12.5013 5.53425C11.8573 5.53425 11.3214 5.74004 10.8936 6.15161C10.4658 6.56317 10.2519 7.07785 10.2519 7.69563C10.2519 8.31505 10.4654 8.83005 10.8923 9.24063C11.3193 9.65123 11.8547 9.85653 12.4987 9.85653Z" fill="white"/>
</svg>
